<?xml version="1.0" encoding="utf-8"?>
<!-- Generator: Adobe Illustrator 17.0.0, SVG Export Plug-In . SVG Version: 6.00 Build 0)  -->
<!DOCTYPE svg PUBLIC "-//W3C//DTD SVG 1.1//EN" "http://www.w3.org/Graphics/SVG/1.1/DTD/svg11.dtd">
<svg version="1.1" id="Layer_1" xmlns="http://www.w3.org/2000/svg" xmlns:xlink="http://www.w3.org/1999/xlink" x="0px" y="0px"
	 width="500px" height="500px" viewBox="0 0 500 500" enable-background="new 0 0 500 500" xml:space="preserve">
<g>
	<polygon fill="#B68D3D" points="130.398,226.586 81.202,218.771 0.136,77.52 48.952,84.672 	"/>
	<polygon fill="#B68D3D" points="154.293,211.847 105.097,204.033 24.031,62.782 72.847,69.933 	"/>
	<polygon fill="#B68D3D" points="190.136,226.586 140.939,218.771 59.873,77.52 108.689,84.672 	"/>
	<polygon fill="#B68D3D" points="214.031,211.847 164.835,204.033 83.768,62.782 132.584,69.933 	"/>
	<polygon fill="#B68D3D" points="191.687,213.268 148.158,194.588 130.008,41.71 173.451,59.673 	"/>
	<polygon fill="#B68D3D" points="222.219,237.832 178.69,219.152 160.54,66.274 203.984,84.237 	"/>
	<polygon fill="#B68D3D" points="232.875,228.896 192.13,207.045 195.02,53.593 235.778,74.725 	"/>
	<polygon fill="#B68D3D" points="267.39,215.141 226.645,193.289 229.535,39.837 270.293,60.969 	"/>
	<polygon fill="#B68D3D" points="270.387,216.252 234.609,190.065 269.018,38.726 304.957,64.203 	"/>
	<polygon fill="#B68D3D" points="342.478,224.276 392.672,221.68 499.864,90.313 450.173,92.292 	"/>
	<polygon fill="#B68D3D" points="305.778,215.179 355.972,212.583 463.165,81.216 413.474,83.195 	"/>
	<polygon fill="#B68D3D" points="297.397,203.623 346.618,195.895 428.134,54.786 379.295,61.852 	"/>
	<polygon fill="#B68D3D" points="262.079,190.382 311.409,183.045 394.963,42.59 346.025,49.269 	"/>
	<polygon fill="#B68D3D" points="243.546,192.206 291.685,181.37 356.486,35.591 308.651,45.743 	"/>
	<g>
		<path fill="#FFFFFF" d="M42.382,165c0,183.743,68.442,274,214.146,274c131.647,0,214.146-83.367,214.146-274H42.382z
			 M232.822,370.751c-9.024,7.715-21.771,11.572-38.242,11.572c-16.821,0-30.051-3.594-39.688-11.193
			c-9.638-7.598-14.455-18.13-14.455-31.13h25.484c0.826,5,2.449,9.995,4.868,12.884c4.425,5.259,12.006,7.785,22.745,7.785
			c6.431,0,11.653-0.745,15.665-2.131c7.611-2.657,11.417-7.624,11.417-14.848c0-4.218-1.865-7.496-5.592-9.808
			c-3.729-2.254-9.643-4.253-17.739-5.988l-13.833-3.036c-13.595-3.004-22.935-6.271-28.019-9.797
			c-8.611-5.895-12.916-15.112-12.916-27.652c0-11.441,4.211-20.947,12.635-28.518c8.424-7.569,20.796-11.356,37.118-11.356
			c13.629,0,25.255,3.412,34.879,10.547C236.772,265.22,241.817,276,242.285,289h-25.657c-0.474-7-3.91-12.988-10.308-16.225
			c-4.266-2.137-9.567-3.128-15.906-3.128c-7.051,0-12.678,1.426-16.885,4.2c-4.207,2.774-6.309,6.666-6.309,11.635
			c0,4.566,2.073,7.985,6.22,10.238c2.666,1.504,8.323,3.271,16.975,5.293l22.422,5.29c9.827,2.312,17.192,5.406,22.098,9.276
			c7.616,6.011,11.424,14.709,11.424,26.091C246.359,353.343,241.847,363.037,232.822,370.751z M350.857,323.683
			c-7.479,6.241-18.16,9.317-32.041,9.317H292v46h-26V251h54.549c12.646,0,22.73,3.425,30.248,10.013
			c7.52,6.587,11.279,16.831,11.279,30.641C362.076,306.737,358.336,317.442,350.857,323.683z"/>
		<path fill="#FFFFFF" d="M330.48,277.474c-3.381-2.831-8.117-4.474-14.209-4.474H292v38h24.271c6.092,0,10.828-1.494,14.209-4.558
			c3.381-3.062,5.072-8.012,5.072-14.658C335.553,285.14,333.861,280.306,330.48,277.474z"/>
	</g>
	<path fill="#2C1901" d="M98.292,140.781c0,0-144.9,40.891-20.095,79.822s374.534,0.433,374.534,0.433s92.538-50.61-44.602-83.377
		c-105.627-25.237-172.337-12.525-172.337-12.525S181.335,133.285,98.292,140.781z"/>
	<path fill="#EBDDC0" d="M123.628,178.831c0,8.525,1.356,13.206-16.658,13.206s-48.575-4.682-48.575-13.206
		c0-8.525-0.068-14.682,17.945-14.682S123.628,170.307,123.628,178.831z"/>
	<path fill="#EBDDC0" d="M397.059,206.413c-5.349-6.726-9.357-9.605,4.856-20.439c14.213-10.834,41.266-25.52,46.615-18.794
		c5.349,6.726,9.268,11.544-4.946,22.377C429.371,200.392,402.409,213.139,397.059,206.413z"/>
	<path fill="#EBDDC0" d="M217.543,193.422c-0.649-10.549-2.683-16.244,19.609-17.558s60.468,2.25,61.117,12.8
		c0.649,10.549,1.202,18.164-21.09,19.478C254.888,209.456,218.192,203.971,217.543,193.422z"/>
	<path fill="#EBDDC0" d="M308.234,156.335c-0.547-8.889-2.261-13.687,16.522-14.794c18.783-1.107,50.95,1.896,51.497,10.785
		s1.013,15.305-17.77,16.412C339.7,169.845,308.781,165.224,308.234,156.335z"/>
	<path fill="#EBDDC0" d="M159.705,161.465c-1.872-5.797-3.822-8.695,8.427-12.486s34.058-7.038,35.93-1.242
		c1.872,5.797,3.27,9.969-8.979,13.76C182.835,165.288,161.577,167.262,159.705,161.465z"/>
</g>
</svg>
